<?xml version="1.0" standalone="no"?><!DOCTYPE svg PUBLIC "-//W3C//DTD SVG 1.1//EN" "http://www.w3.org/Graphics/SVG/1.1/DTD/svg11.dtd"><svg t="1501832231327" class="icon" style="" viewBox="0 0 1024 1024" version="1.1" xmlns="http://www.w3.org/2000/svg" p-id="5517" xmlns:xlink="http://www.w3.org/1999/xlink" width="48" height="48"><defs><style type="text/css">* { font-weight: 500 !important; }
* { font-family: "“Microsoft Yahei”", "“Microsoft Yahei”"; }
* { text-shadow: rgb(153, 153, 153) 0.01em 0.01em 0.01em !important; }
* { text-decoration: none !important; }
</style></defs><path d="M854.016 500.224c-68.608 68.608-168.96 85.504-253.44 50.688l-276.992 333.824c-50.688 50.688-132.608 50.688-183.296 0s-50.688-132.608 0-182.784l333.824-277.504c-34.816-84.48-17.92-184.832 50.688-253.44 65.536-65.536 159.744-82.944 241.664-54.272l-147.968 147.968 144.384 144.384 146.432-146.944c27.136 80.896 9.216 173.568-55.296 238.08zM195.072 829.952c20.48 19.968 53.248 19.968 73.216 0 20.48-20.48 20.48-53.248 0-73.216-19.968-20.48-52.736-20.48-73.216 0-19.968 19.968-19.968 52.736 0 73.216z" p-id="5518"></path></svg>