<?xml version="1.0" standalone="no"?>
<!DOCTYPE svg PUBLIC "-//W3C//DTD SVG 20010904//EN"
 "http://www.w3.org/TR/2001/REC-SVG-20010904/DTD/svg10.dtd">
<svg version="1.0" xmlns="http://www.w3.org/2000/svg"
 width="296.000000pt" height="296.000000pt" viewBox="0 0 296.000000 296.000000"
 preserveAspectRatio="xMidYMid meet">

<g transform="translate(0.000000,296.000000) scale(0.100000,-0.100000)"
fill="#000000" stroke="none">
<path d="M1368 2606 c-276 -49 -519 -200 -688 -427 -154 -207 -230 -485 -202
-739 29 -259 121 -456 299 -641 143 -148 313 -246 518 -300 78 -20 113 -23
255 -23 144 1 177 4 262 27 293 78 538 270 679 531 22 42 37 76 32 76 -4 -1
-37 -7 -73 -15 -36 -8 -86 -14 -112 -15 l-46 0 -18 -52 c-38 -119 -99 -207
-187 -273 -141 -107 -327 -128 -524 -61 -326 111 -613 442 -712 820 -12 44
-21 83 -21 88 0 4 26 -9 57 -29 130 -83 314 -152 481 -179 125 -21 305 -14
417 16 102 27 281 114 366 179 93 71 233 220 306 327 l62 90 -29 52 c-142 260
-388 451 -675 527 -124 33 -327 42 -447 21z m70 -236 c158 -26 333 -119 477
-253 l68 -63 -27 -51 c-140 -256 -432 -413 -771 -413 -107 0 -259 25 -327 53
l-38 16 0 106 c0 201 55 352 169 466 121 120 273 167 449 139z m793 -468
c-256 -373 -632 -513 -1074 -401 -81 20 -191 59 -185 64 2 2 39 -6 83 -17 120
-31 376 -31 499 0 94 24 240 88 315 139 66 46 176 159 228 235 l47 68 73 0 74
0 -60 -88z"/>
</g>
</svg>
