<?xml version="1.0" standalone="no"?><!DOCTYPE svg PUBLIC "-//W3C//DTD SVG 1.1//EN" "http://www.w3.org/Graphics/SVG/1.1/DTD/svg11.dtd"><svg t="1501832500101" class="icon" style="" viewBox="0 0 1046 1024" version="1.1" xmlns="http://www.w3.org/2000/svg" p-id="7354" xmlns:xlink="http://www.w3.org/1999/xlink" width="49.03125" height="48"><defs><style type="text/css">* { font-weight: 500 !important; }
* { font-family: "“Microsoft Yahei”", "“Microsoft Yahei”"; }
* { text-shadow: rgb(153, 153, 153) 0.01em 0.01em 0.01em !important; }
* { text-decoration: none !important; }
</style></defs><path d="M1011.934609 957.217391c-19.077565 0-13.979826-15.270957-13.979826-34.370782v-3.82887-3.806609c-22.884174-162.927304-158.920348-286.408348-322.916174-295.334956H639.443478c-162.704696 8.926609-298.74087 131.116522-322.893913 294.066087v8.904348c0 19.099826 5.075478 34.370783-13.979826 34.370782a34.192696 34.192696 0 0 1-34.326261-34.370782v-3.82887c0-3.806609 1.26887-7.635478 2.537739-11.442087a408.909913 408.909913 0 0 1 129.669566-246.962087c38.13287-34.370783 82.632348-62.374957 129.669565-80.183652-82.632348-50.93287-138.573913-141.289739-138.573913-244.402087 0-157.851826 108.054261-266.039652 265.705739-266.039652 157.629217 0 265.705739 108.187826 265.705739 266.039652 0 103.112348-55.941565 194.760348-138.573913 244.402087a394.017391 394.017391 0 0 1 129.669565 80.183652c72.45913 64.934957 118.227478 154.022957 130.938435 249.499826 1.26887 3.82887 1.26887 6.366609 1.26887 10.195479v2.537739c0 19.099826-15.248696 34.370783-34.326261 34.370782z m-136.013913-622.458434c0-120.943304-97.903304-218.957913-218.668522-218.957914-120.765217 0-218.668522 98.014609-218.668522 218.957914 0 114.554435 87.730087 208.762435 198.322087 217.666782h40.69287c110.592-10.195478 198.322087-103.112348 198.322087-217.666782zM422.066087 91.625739s-21.615304-1.26887-31.788522-1.268869c-120.765217 0-218.646261 98.014609-218.646261 218.935652 0 113.285565 86.438957 207.493565 198.299826 217.666782h10.173218c5.097739 0 8.904348 1.26887 12.710956 3.82887 10.173217 6.366609 17.808696 17.808696 17.808696 30.541913 0 19.099826-15.248696 34.370783-34.326261 34.370783H369.93113c-162.704696 8.904348-298.74087 132.385391-321.625043 292.774956v8.904348c0 19.099826 5.097739 34.370783-13.979826 34.370783A34.192696 34.192696 0 0 1 0 897.380174v-3.806609c0-3.82887 1.26887-7.635478 2.537739-11.464348a408.84313 408.84313 0 0 1 129.669565-246.939826c38.13287-34.370783 82.632348-62.374957 129.669566-80.205913-82.632348-49.641739-138.573913-140.02087-138.573913-244.402087C123.302957 152.709565 231.379478 44.521739 389.008696 44.521739c8.904348 0 17.808696 0 26.690782 1.26887h2.56c17.786435 0 33.03513 15.270957 36.864 31.833043 0 19.077565-15.270957 14.002087-33.057391 14.002087z" p-id="7355"></path></svg>