<?xml version="1.0" standalone="no"?><!DOCTYPE svg PUBLIC "-//W3C//DTD SVG 1.1//EN" "http://www.w3.org/Graphics/SVG/1.1/DTD/svg11.dtd"><svg t="1501655264374" class="icon" style="" viewBox="0 0 1024 1024" version="1.1" xmlns="http://www.w3.org/2000/svg" p-id="3308" xmlns:xlink="http://www.w3.org/1999/xlink" width="48" height="48"><defs><style type="text/css">* { font-weight: 500 !important; }
* { font-family: "“Microsoft Yahei”", "“Microsoft Yahei”"; }
* { text-shadow: rgb(153, 153, 153) 0.01em 0.01em 0.01em !important; }
* { text-decoration: none !important; }
</style></defs><path d="M896 256l0-128-896 0 0 704c0 35.346 28.654 64 64 64l864 0c53.022 0 96-42.978 96-96l0-544-128 0zM832 832l-768 0 0-640 768 0 0 640zM128 320l640 0 0 64-640 0zM512 448l256 0 0 64-256 0zM512 576l256 0 0 64-256 0zM512 704l192 0 0 64-192 0zM128 448l320 0 0 320-320 0z" p-id="3309"></path></svg>