<?xml version="1.0" standalone="no"?><!DOCTYPE svg PUBLIC "-//W3C//DTD SVG 1.1//EN" "http://www.w3.org/Graphics/SVG/1.1/DTD/svg11.dtd"><svg t="1501751643705" class="icon" style="" viewBox="0 0 1024 1024" version="1.1" xmlns="http://www.w3.org/2000/svg" p-id="2403" xmlns:xlink="http://www.w3.org/1999/xlink" width="48" height="48"><defs><style type="text/css">* { font-weight: 500 !important; }
* { font-family: "“Microsoft Yahei”", "“Microsoft Yahei”"; }
* { text-shadow: rgb(153, 153, 153) 0.01em 0.01em 0.01em !important; }
* { text-decoration: none !important; }
</style></defs><path d="M767.299368 486.642526 256.700632 486.642526l0 50.741895 510.571789 0L767.272421 486.642526zM767.299368 309.113263 256.700632 309.113263l0 50.714947 510.571789 0L767.272421 309.113263zM614.103579 664.171789 256.700632 664.171789l0 50.714947 357.402947 0L614.103579 664.171789zM945.987368 80.842105 78.012632 80.842105C49.798737 80.842105 26.947368 103.558737 26.947368 131.584l0 760.832C26.947368 920.441263 49.798737 943.157895 78.012632 943.157895l868.001684 0C974.201263 943.157895 997.052632 920.441263 997.052632 892.416L997.052632 131.584C997.052632 103.558737 974.201263 80.842105 945.987368 80.842105zM945.987368 892.416 78.012632 892.416 78.012632 131.584l868.001684 0L946.014316 892.416z" p-id="2404"></path></svg>