<?xml version="1.0" standalone="no"?><!DOCTYPE svg PUBLIC "-//W3C//DTD SVG 1.1//EN" "http://www.w3.org/Graphics/SVG/1.1/DTD/svg11.dtd"><svg t="1501825431623" class="icon" style="" viewBox="0 0 1024 1024" version="1.1" xmlns="http://www.w3.org/2000/svg" p-id="2537" xmlns:xlink="http://www.w3.org/1999/xlink" width="48" height="48"><defs><style type="text/css">* { font-weight: 500 !important; }
* { font-family: "“Microsoft Yahei”", "“Microsoft Yahei”"; }
* { text-shadow: rgb(153, 153, 153) 0.01em 0.01em 0.01em !important; }
* { text-decoration: none !important; }
</style></defs><path d="M478.322993 108.520599c-6.306636-3.14155-13.905708-2.518357-19.562545 1.768273L205.910697 299.920814 83.186607 299.920814c-10.31288 0-18.687618 8.369621-18.687618 18.688641l0 386.785184c0 10.313903 8.374738 18.688641 18.687618 18.688641l122.69953 0 252.851798 189.627848c3.312442 2.490727 7.248078 3.741207 11.211343 3.741207 2.841721 0 5.709025-0.651846 8.347109-1.971911 6.353708-3.160993 10.342556-9.643638 10.342556-16.721847L488.638943 125.240399C488.660432 118.164237 484.673631 111.684662 478.322993 108.520599L478.322993 108.520599zM451.285197 861.436554 223.352951 690.490184c-3.237741-2.437515-7.17747-3.735068-11.212366-3.735068L101.875249 686.755116 101.875249 337.321632l110.2418 0c4.03592 0 7.975649-1.321088 11.212366-3.736091l227.932246-170.945347 0 698.79636L451.285197 861.436554zM623.422695 323.491649c-7.722892 6.852058-8.398274 18.663058-1.520633 26.386974 39.149649 43.983747 60.750619 100.646258 60.750619 159.605068 0 61.325717-23.122627 119.685893-65.061808 164.337859-7.05365 7.52437-6.701632 19.335371 0.822738 26.441209 3.612271 3.388167 8.198729 5.057179 12.808724 5.057179 4.957919 0 9.943466-1.967818 13.631462-5.878894 48.489364-51.606355 75.204819-119.063723 75.204819-189.933817 0-68.12661-24.943089-133.635603-70.223365-184.471408C642.933051 317.263807 631.146611 316.590472 623.422695 323.491649L623.422695 323.491649zM789.900288 186.765661c-6.976902 7.601118-6.501064 19.412119 1.074472 26.436092 83.350336 76.848249 131.144876 185.944969 131.144876 299.299667 0 112.828718-47.442522 221.62561-130.198318 298.449299-7.54893 7.024997-7.975649 18.859533-0.970094 26.436092 3.687996 3.964288 8.691963 5.954619 13.70207 5.954619 4.562922 0 9.120728-1.64343 12.732999-4.980431 90.308819-83.878362 142.114718-202.63714 142.114718-325.836043 0-123.744325-52.181453-242.856144-143.160537-326.780555C808.741401 178.714288 796.930401 179.190125 789.900288 186.765661L789.900288 186.765661zM789.900288 186.765661" p-id="2538"></path></svg>