<?xml version="1.0" standalone="no"?><!DOCTYPE svg PUBLIC "-//W3C//DTD SVG 1.1//EN" "http://www.w3.org/Graphics/SVG/1.1/DTD/svg11.dtd"><svg t="1501759874842" class="icon" style="" viewBox="0 0 1024 1024" version="1.1" xmlns="http://www.w3.org/2000/svg" p-id="2408" xmlns:xlink="http://www.w3.org/1999/xlink" width="48" height="48"><defs><style type="text/css">* { font-weight: 500 !important; }
* { font-family: "“Microsoft Yahei”", "“Microsoft Yahei”"; }
* { text-shadow: rgb(153, 153, 153) 0.01em 0.01em 0.01em !important; }
* { text-decoration: none !important; }
</style></defs><path d="M904 133.952 120 133.952C89.216 133.952 64 159.104 64 189.952l0 644.096c0 30.784 25.216 56 56 56l784 0c30.72 0 56-25.216 56-56L960 189.952C960 159.104 934.72 133.952 904 133.952zM904 834.048 120 834.048l0-164.928 224.768-217.792 231.68 231.36c9.536 11.648 26.56 10.112 38.592 1.024l102.336-92.544 184.448 189.312c0.704 0.704 1.536 0.896 2.24 1.472L904.064 834.048zM904 702.592l-164.48-168.384c-9.984-9.792-25.6-10.88-36.736-2.368L597.248 623.68 365.44 394.368C360.512 388.352 353.344 384.704 345.6 384.192 337.92 383.936 330.304 386.432 324.608 391.744L120 590.912 120 189.952l784 0L904 702.592zM707.968 414.144c30.848 0 55.872-25.088 55.872-55.872s-25.024-55.872-55.872-55.872-55.872 25.088-55.872 55.872S677.12 414.144 707.968 414.144z" p-id="2409"></path></svg>